<svg viewBox="0 0 24 24" fill="none" xmlns="http://www.w3.org/2000/svg">
<path fill-rule="evenodd" clip-rule="evenodd" d="M12 1.20398C5.9225 1.20398 1 6.02158 1 11.9696C1 16.7333 4.14875 20.757 8.52125 22.1834C9.07125 22.2776 9.2775 21.9546 9.2775 21.672C9.2775 21.4164 9.26375 20.5686 9.26375 19.667C6.5 20.1649 5.785 19.0076 5.565 18.402C5.44125 18.0925 4.905 17.137 4.4375 16.8814C4.0525 16.6795 3.5025 16.1816 4.42375 16.1681C5.29 16.1547 5.90875 16.9486 6.115 17.2716C7.105 18.8999 8.68625 18.4424 9.31875 18.1598C9.415 17.46 9.70375 16.989 10.02 16.7199C7.5725 16.4507 5.015 15.5222 5.015 11.4044C5.015 10.2336 5.44125 9.26471 6.1425 8.51112C6.0325 8.24198 5.6475 7.13851 6.2525 5.65824C6.2525 5.65824 7.17375 5.37564 9.2775 6.76171C10.1575 6.51949 11.0925 6.39837 12.0275 6.39837C12.9625 6.39837 13.8975 6.51949 14.7775 6.76171C16.8813 5.36219 17.8025 5.65824 17.8025 5.65824C18.4075 7.13851 18.0225 8.24198 17.9125 8.51112C18.6138 9.26471 19.04 10.2202 19.04 11.4044C19.04 15.5357 16.4688 16.4507 14.0213 16.7199C14.42 17.0563 14.7638 17.7022 14.7638 18.7115C14.7638 20.1514 14.75 21.3087 14.75 21.672C14.75 21.9546 14.9563 22.2911 15.5063 22.1834C19.8512 20.757 23 16.7199 23 11.9696C23 6.02158 18.0775 1.20398 12 1.20398Z" fill="currentColor"/>
</svg>
