<svg width="38" height="24" viewBox="0 0 38 24" fill="none" xmlns="http://www.w3.org/2000/svg">
<path d="M0 12C0 6.47715 4.47715 2 10 2H26C31.5228 2 36 6.47715 36 12C36 17.5228 31.5228 22 26 22H10C4.47715 22 0 17.5228 0 12Z" fill="#0066FF"/>
<g filter="url(#filter0_d_2697_32595)">
<path d="M18 12C18 7.58172 21.5817 4 26 4C30.4183 4 34 7.58172 34 12C34 16.4183 30.4183 20 26 20C21.5817 20 18 16.4183 18 12Z" fill="white"/>
</g>
<defs>
<filter id="filter0_d_2697_32595" x="14" y="0" width="24" height="24" filterUnits="userSpaceOnUse" color-interpolation-filters="sRGB">
<feFlood flood-opacity="0" result="BackgroundImageFix"/>
<feColorMatrix in="SourceAlpha" type="matrix" values="0 0 0 0 0 0 0 0 0 0 0 0 0 0 0 0 0 0 127 0" result="hardAlpha"/>
<feOffset/>
<feGaussianBlur stdDeviation="2"/>
<feComposite in2="hardAlpha" operator="out"/>
<feColorMatrix type="matrix" values="0 0 0 0 0 0 0 0 0 0 0 0 0 0 0 0 0 0 0.08 0"/>
<feBlend mode="normal" in2="BackgroundImageFix" result="effect1_dropShadow_2697_32595"/>
<feBlend mode="normal" in="SourceGraphic" in2="effect1_dropShadow_2697_32595" result="shape"/>
</filter>
</defs>
</svg>
