<svg width="24" height="24" viewBox="0 0 24 24" fill="none" xmlns="http://www.w3.org/2000/svg">
<path d="M18.0714 3.5H5.92857C4.58731 3.5 3.5 4.58731 3.5 5.92857V18.0714C3.5 19.4127 4.58731 20.5 5.92857 20.5H18.0714C19.4127 20.5 20.5 19.4127 20.5 18.0714V5.92857C20.5 4.58731 19.4127 3.5 18.0714 3.5Z" fill="#904EE2"/>
<path fill-rule="evenodd" clip-rule="evenodd" d="M15.5498 11.7044L15.5473 11.6996C15.6032 11.6085 15.6433 11.5077 15.6433 11.3924C15.6433 11.0572 15.3713 10.7852 15.0361 10.7852H12.0004V7.74951C12.0004 7.41436 11.7284 7.14236 11.3933 7.14236C11.1844 7.14236 11.0108 7.25408 10.9015 7.41315C10.8675 7.46293 10.8395 7.51393 10.8213 7.57101L8.4559 12.2873L8.45832 12.2909C8.40004 12.3844 8.35754 12.4889 8.35754 12.6066C8.35754 12.943 8.62954 13.2138 8.96468 13.2138H12.0004V16.2495C12.0004 16.5859 12.2724 16.8566 12.6075 16.8566C12.8249 16.8566 13.007 16.7364 13.1151 16.564L13.1188 16.5652L13.1345 16.5336C13.1479 16.5081 13.1625 16.4851 13.1722 16.4584L15.5498 11.7044Z" fill="white"/>
</svg>
